<svg width="152" height="32" viewBox="0 0 152 32" fill="none" xmlns="http://www.w3.org/2000/svg">
<path fill-rule="evenodd" clip-rule="evenodd" d="M8.14406 13.8673C9.65667 13.8673 10.8669 13.4433 11.7749 12.5953C12.6993 11.7473 13.1617 10.5751 13.1617 9.07862C13.1617 7.58216 12.6993 6.40993 11.7749 5.56194C10.8669 4.71394 9.65667 4.28994 8.14406 4.28994H4.99229V13.8673H8.14406ZM0 0.349365H8.34589C10.2791 0.349365 11.9936 0.706775 13.4896 1.42183C14.9855 2.13689 16.1454 3.151 16.9691 4.46464C17.7929 5.77828 18.2046 7.31616 18.2046 9.07874C18.2046 10.8413 17.7929 12.3792 16.9691 13.6928C16.1454 15.0065 14.9855 16.0206 13.4896 16.7356C11.9936 17.4507 10.2791 17.8083 8.34589 17.8083H0V0.349365Z" fill="#F2F2F2"/>
<path fill-rule="evenodd" clip-rule="evenodd" d="M21.8396 17.8081H26.8318V0.349365H21.8396V17.8081Z" fill="#F2F2F2"/>
<path fill-rule="evenodd" clip-rule="evenodd" d="M43.6934 10.5868H47.6304V17.8079C46.4035 17.8079 44.5191 17.7971 43.2177 17.8079C41.765 17.8199 41.5298 17.8079 40.2189 17.8079C38.3697 17.8079 36.7041 17.7747 35.2248 17.0098C33.7457 16.2284 32.5859 15.1475 31.7455 13.7675C30.9048 12.3875 30.4848 10.8244 30.4848 9.07855C30.4848 7.33267 30.9048 5.76962 31.7455 4.38963C32.5859 3.00963 33.7543 1.93717 35.2502 1.17223C36.7462 0.390822 38.4356 0 40.3183 0C41.9653 0 43.4446 0.274352 44.756 0.823055C46.0671 1.37176 47.1594 2.16164 48.0336 3.19246L44.8568 6.03574C43.6632 4.7388 42.2343 4.09033 40.5702 4.09033C39.0576 4.09033 37.839 4.54751 36.9141 5.46209C35.9895 6.35997 35.5276 7.56538 35.5276 9.07855C35.5276 10.043 35.7376 10.9075 36.1577 11.6724C36.5783 12.4206 37.1665 13.011 37.9227 13.4432C38.6794 13.859 39.545 14.0668 40.5198 14.0668H43.6934V10.5868Z" fill="#F2F2F2"/>
<path fill-rule="evenodd" clip-rule="evenodd" d="M51.804 17.8081H56.7964V0.349365H51.804V17.8081Z" fill="#F2F2F2"/>
<path fill-rule="evenodd" clip-rule="evenodd" d="M77.2922 17.8081L77.2417 8.55474L72.7032 16.0872H70.4846L65.971 8.80415V17.8081H61.3571V0.349365H65.4667L71.6694 10.4256L77.721 0.349365H81.8307L81.8814 17.8081H77.2922Z" fill="#F2F2F2"/>
<path fill-rule="evenodd" clip-rule="evenodd" d="M96.7854 10.7747L94.5162 5.18789L92.2469 10.7747H96.7854ZM98.2478 14.4161H90.7844L89.3976 17.8083H84.3044L92.0955 0.349365H97.0123L104.829 17.8083H99.6348L98.2478 14.4161Z" fill="#F2F2F2"/>
<path fill-rule="evenodd" clip-rule="evenodd" d="M110.123 4.26511H104.702V0.349365H120.511V4.26511H115.116V17.8083H110.123V4.26511Z" fill="#F2F2F2"/>
<path fill-rule="evenodd" clip-rule="evenodd" d="M124.331 17.8081H129.324V0.349365H124.331V17.8081Z" fill="#F2F2F2"/>
<path fill-rule="evenodd" clip-rule="evenodd" d="M145.505 17.8081L141.849 12.3959L138.243 17.8081H132.545L138.974 8.97897L132.822 0.349365H138.444L141.975 5.38722L145.454 0.349365H150.85L144.698 8.77921L151.254 17.8081H145.505Z" fill="#F2F2F2"/>
<path fill-rule="evenodd" clip-rule="evenodd" d="M99.1278 29.054L98.6214 27.657L98.4216 27.0312H98.4016L98.2153 27.6441L97.6956 29.054H99.1278ZM99.3411 29.6273H97.4893L97.0699 30.7668H96.3373L97.9955 26.4188H98.848L100.507 30.7668H99.7541L99.3411 29.6273Z" fill="#F2F2F2"/>
<path fill-rule="evenodd" clip-rule="evenodd" d="M110.522 28.5203V30.7669H109.996L109.976 30.2135C109.847 30.4111 109.669 30.5648 109.443 30.6746C109.217 30.7801 108.946 30.8328 108.63 30.8328C108.222 30.8328 107.865 30.7426 107.558 30.5629C107.252 30.3826 107.014 30.1257 106.846 29.7918C106.677 29.4537 106.592 29.0542 106.592 28.593C106.592 28.1361 106.679 27.7408 106.852 27.4071C107.025 27.0688 107.27 26.8095 107.585 26.6295C107.9 26.4453 108.267 26.3528 108.684 26.3528C109.137 26.3528 109.51 26.4365 109.803 26.6034C110.096 26.7702 110.327 27.0293 110.496 27.3805L109.843 27.6904C109.758 27.453 109.616 27.273 109.417 27.15C109.217 27.0269 108.977 26.9657 108.697 26.9657C108.28 26.9657 107.949 27.1083 107.705 27.3937C107.46 27.6791 107.338 28.0789 107.338 28.593C107.338 29.1154 107.454 29.5196 107.685 29.805C107.92 30.0862 108.262 30.2266 108.71 30.2266C109.061 30.2266 109.345 30.1412 109.563 29.9697C109.781 29.7987 109.889 29.5502 109.889 29.2252V29.1001H108.544V28.5203H110.522Z" fill="#F2F2F2"/>
<path fill-rule="evenodd" clip-rule="evenodd" d="M120.645 30.1609V30.7668H117.368V26.4188H120.551V27.0249H118.08V28.2765H120.012V28.8696H118.08V30.1609H120.645Z" fill="#F2F2F2"/>
<path fill-rule="evenodd" clip-rule="evenodd" d="M130.914 30.7668H130.068L128.369 28.0263L127.943 27.2226H127.936L127.963 27.9602V30.7668H127.31V26.4188H128.15L129.841 29.1529L130.274 29.963H130.281L130.254 29.2252V26.4188H130.914V30.7668Z" fill="#F2F2F2"/>
<path fill-rule="evenodd" clip-rule="evenodd" d="M141.567 29.6143C141.434 30.0051 141.205 30.3058 140.881 30.5169C140.561 30.7275 140.184 30.8331 139.749 30.8331C139.327 30.8331 138.96 30.743 138.65 30.563C138.339 30.383 138.099 30.1237 137.93 29.7856C137.761 29.4475 137.677 29.0498 137.677 28.5931C137.677 28.1364 137.761 27.7386 137.93 27.4007C138.099 27.0626 138.339 26.8033 138.65 26.6233C138.96 26.443 139.324 26.3531 139.742 26.3531C140.182 26.3531 140.55 26.443 140.848 26.6233C141.149 26.8033 141.367 27.0691 141.5 27.4204L140.828 27.7169C140.739 27.4579 140.61 27.2689 140.441 27.1501C140.273 27.0273 140.053 26.9659 139.782 26.9659C139.369 26.9659 139.038 27.1106 138.789 27.4007C138.545 27.6861 138.423 28.0837 138.423 28.5931C138.423 29.107 138.541 29.5068 138.776 29.7922C139.012 30.0776 139.338 30.2204 139.755 30.2204C140.039 30.2204 140.277 30.1498 140.468 30.0096C140.663 29.8691 140.803 29.6625 140.888 29.3903L141.567 29.6143Z" fill="#F2F2F2"/>
<path fill-rule="evenodd" clip-rule="evenodd" d="M149.812 29.1002V30.767H149.1V29.1002L147.534 26.4188H148.327L149.113 27.8155L149.459 28.4678L149.806 27.8155L150.585 26.4188H151.384L149.812 29.1002Z" fill="#F2F2F2"/>
<path fill-rule="evenodd" clip-rule="evenodd" d="M28.1934 30.1675C28.6548 30.1675 29.0104 30.0313 29.2588 29.7593C29.5073 29.4823 29.632 29.0939 29.632 28.5932C29.632 28.0925 29.5073 27.7057 29.2588 27.4334C29.0104 27.1567 28.6548 27.0184 28.1934 27.0184H27.3542V30.1675H28.1934ZM28.1934 26.4207C28.8858 26.4207 29.4234 26.6096 29.8049 26.9875C30.187 27.3649 30.378 27.9009 30.378 28.595C30.378 29.2886 30.187 29.8246 29.8049 30.2025C29.4234 30.5799 28.8858 30.7689 28.1934 30.7689H26.6415V26.4207H28.1934Z" fill="#F2F2F2"/>
<path fill-rule="evenodd" clip-rule="evenodd" d="M37.1439 30.7668H37.8565V26.4188H37.1439V30.7668Z" fill="#F2F2F2"/>
<path fill-rule="evenodd" clip-rule="evenodd" d="M48.5524 28.5203V30.7669H48.0263L48.0063 30.2135C47.8776 30.4111 47.6999 30.5648 47.4735 30.6746C47.247 30.7801 46.9761 30.8328 46.6609 30.8328C46.2525 30.8328 45.895 30.7426 45.5886 30.5629C45.2822 30.3826 45.0446 30.1257 44.8759 29.7918C44.7073 29.4537 44.6226 29.0542 44.6226 28.593C44.6226 28.1361 44.7094 27.7408 44.8823 27.4071C45.0557 27.0688 45.3 26.8095 45.615 26.6295C45.9304 26.4453 46.2967 26.3528 46.7139 26.3528C47.1671 26.3528 47.5401 26.4365 47.8331 26.6034C48.1262 26.7702 48.3571 27.0293 48.5258 27.3805L47.8731 27.6904C47.7886 27.453 47.6464 27.273 47.4468 27.15C47.247 27.0269 47.0072 26.9657 46.7275 26.9657C46.3098 26.9657 45.9794 27.1083 45.7349 27.3937C45.4908 27.6791 45.3685 28.0789 45.3685 28.593C45.3685 29.1154 45.4842 29.5196 45.7149 29.805C45.9504 30.0862 46.2924 30.2266 46.7408 30.2266C47.0914 30.2266 47.3757 30.1412 47.5933 29.9697C47.811 29.7987 47.9197 29.5502 47.9197 29.2252V29.1001H46.5743V28.5203H48.5524Z" fill="#F2F2F2"/>
<path fill-rule="evenodd" clip-rule="evenodd" d="M55.3976 30.7668H56.1103V26.4188H55.3976V30.7668Z" fill="#F2F2F2"/>
<path fill-rule="evenodd" clip-rule="evenodd" d="M66.393 27.0249H64.8877V30.7668H64.1751V27.0249H62.6698V26.4188H66.393V27.0249Z" fill="#F2F2F2"/>
<path fill-rule="evenodd" clip-rule="evenodd" d="M74.6283 29.054L74.1219 27.657L73.9221 27.0312H73.9021L73.7156 27.6441L73.1961 29.054H74.6283ZM74.8414 29.6273H72.9896L72.57 30.7668H71.8373L73.4955 26.4188H74.3481L76.0067 30.7668H75.2541L74.8414 29.6273Z" fill="#F2F2F2"/>
<path fill-rule="evenodd" clip-rule="evenodd" d="M85.6324 30.1609V30.7668H82.4953V26.4188H83.208V30.1609H85.6324Z" fill="#F2F2F2"/>
<path fill-rule="evenodd" clip-rule="evenodd" d="M0 24.9413H3.00691L6.18461 28.517L3.00691 32.0001H0L2.94744 28.5109L0 24.9413Z" fill="#5101A6"/>
<path fill-rule="evenodd" clip-rule="evenodd" d="M5.94672 24.9409H8.95362L12.1313 28.5167L8.95362 31.9997H5.94672L8.89416 28.5105L5.94672 24.9409Z" fill="#5101A6"/>
<path fill-rule="evenodd" clip-rule="evenodd" d="M12.1313 24.9409H15.1382L18.3159 28.5167L15.1382 31.9997H12.1313L15.0787 28.5105L12.1313 24.9409Z" fill="#5101A6"/>
</svg>
